<svg version="1.1" id="Layer_1" xmlns="http://www.w3.org/2000/svg" xmlns:xlink="http://www.w3.org/1999/xlink" x="0px" y="0px"
	 width="100%" viewBox="0 0 392 478" enable-background="new 0 0 392 478" xml:space="preserve">
<path fill="#FEFFFF" opacity="1.000000" stroke="none" 
	d="
M393.000000,188.000000 
	C393.000000,285.305511 393.000000,382.111053 393.000000,478.958282 
	C262.398682,478.958282 131.797333,478.958282 1.097999,478.958282 
	C1.097999,319.777802 1.097999,160.555542 1.097999,1.166633 
	C131.666489,1.166633 262.333221,1.166633 393.000000,1.166633 
	C393.000000,63.202679 393.000000,125.351341 393.000000,188.000000 
M74.388046,223.082062 
	C74.133774,223.629562 73.879509,224.177048 73.843010,224.874786 
	C73.843010,224.874786 73.666779,224.677444 73.067780,224.928238 
	C71.666794,226.586441 70.265816,228.244659 68.960205,229.952881 
	C68.960205,229.952881 68.913788,229.855713 68.393997,230.031631 
	C68.227180,230.345703 68.060371,230.659775 67.451393,231.133179 
	C67.180634,231.328995 67.025345,231.592773 66.462013,232.071121 
	C66.298943,232.377563 66.135872,232.684021 66.001778,233.000336 
	C66.001778,233.000336 65.985603,232.974182 65.412659,233.202118 
	C64.800262,234.003006 64.187866,234.803894 64.021385,235.884766 
	C63.869984,235.796890 63.718586,235.709000 63.098309,235.813660 
	C62.944836,236.104233 62.791363,236.394806 62.889019,236.858810 
	C62.889019,236.858810 62.673744,236.642471 62.108006,236.887726 
	C61.707275,237.578278 61.306545,238.268845 60.989159,238.979858 
	C60.989159,238.979858 60.934540,238.913666 60.348473,239.271286 
	C60.925098,242.468933 61.501724,245.666580 62.034279,248.931183 
	C62.034279,248.931183 62.110462,248.956070 62.100052,249.511520 
	C62.380527,249.731125 62.661003,249.950729 63.059177,250.636826 
	C63.059177,250.636826 63.416649,250.958801 63.527706,251.501404 
	C63.991158,252.037033 64.454613,252.572678 64.973167,253.030212 
	C64.973167,253.030212 64.881226,253.056351 64.994453,253.682480 
	C65.654083,254.483353 66.313713,255.284225 67.103584,256.601105 
	C67.234207,256.721130 67.364822,256.841187 67.626511,257.486633 
	C68.073555,258.008636 68.520599,258.530609 69.001068,259.004364 
	C69.001068,259.004364 68.944374,259.019653 69.008354,259.575592 
	C69.371033,259.990448 69.733711,260.405304 70.038406,260.907379 
	C70.038406,260.907379 70.135063,260.947815 70.112991,261.496216 
	C70.400444,261.698792 70.687897,261.901367 71.143929,262.610626 
	C71.283424,262.721191 71.422913,262.831726 71.638893,263.378540 
	C71.896576,263.720245 72.154266,264.061951 72.510193,264.433228 
	C72.510193,264.433228 72.504555,264.535706 72.719986,265.041382 
	C73.105270,265.410431 73.490555,265.779510 73.967781,266.035645 
	C73.967781,266.035645 73.843277,266.111176 73.932648,266.734955 
	C74.597214,267.519012 75.261780,268.303040 76.002220,269.015900 
	C76.002220,269.015900 75.910316,269.064362 75.980164,269.688385 
	C76.640907,270.474884 77.301643,271.261383 78.004112,272.007263 
	C78.004112,272.007263 77.952339,272.032013 78.022278,272.648743 
	C78.693794,273.407074 79.365311,274.165405 79.999596,274.980225 
	C79.999596,274.980225 80.067245,274.978363 80.095238,275.518280 
	C80.384178,275.710083 80.673111,275.901886 81.177719,276.734833 
	C84.634521,278.863464 87.961304,281.266205 91.607384,282.995911 
	C93.235207,283.768188 95.543930,282.948151 97.476135,283.263885 
	C104.676971,284.440643 111.849831,285.788605 119.384949,287.705261 
	C122.797882,288.626984 126.172844,289.738129 129.631561,290.431519 
	C137.190643,291.946960 144.792282,293.250244 152.723694,294.703766 
	C152.849579,292.605804 152.994110,291.308014 152.995316,290.010132 
	C153.013474,270.356873 152.914810,250.702698 153.098679,231.051117 
	C153.135788,227.083466 151.827484,225.603760 147.927597,224.926346 
	C129.104935,221.656876 110.312729,218.197006 91.565384,214.520798 
	C87.426407,213.709167 84.107567,214.324631 80.482208,217.198776 
	C79.988480,217.789978 79.494759,218.381195 78.450005,219.118164 
	C78.135353,219.579605 77.820694,220.041046 77.544968,220.591736 
	C77.544968,220.591736 77.447655,220.588562 77.045135,220.748123 
	C76.791084,220.918610 76.634483,221.153946 76.573349,221.551239 
	C76.573349,221.551239 76.479080,221.527802 76.004196,221.770508 
	C75.667671,222.180679 75.331146,222.590836 75.000000,223.000610 
	C75.000000,223.000610 75.002625,222.997375 74.388046,223.082062 
M303.011383,265.973999 
	C303.011383,265.973999 303.110565,265.942047 303.048553,265.379181 
	C302.673859,264.963409 302.299164,264.547668 301.976562,264.063538 
	C301.976562,264.063538 301.894348,264.038452 301.914642,263.499084 
	C301.628265,263.307587 301.341919,263.116089 301.002716,262.999298 
	C301.002716,262.999298 301.072174,262.939484 300.921417,262.269226 
	C298.643219,259.807983 296.365021,257.346741 294.019806,254.993668 
	C294.019806,254.993668 294.119293,254.914322 293.935577,254.412186 
	C293.614990,254.297180 293.294403,254.182190 292.800659,253.819824 
	C292.800659,253.819824 292.504486,253.761337 292.039490,253.154327 
	C290.799500,252.717224 289.591553,252.112808 288.314697,251.868149 
	C269.863586,248.332642 251.403183,244.845459 232.320160,241.132385 
	C231.881683,241.147430 231.443222,241.162476 230.291672,240.854858 
	C224.174438,239.691391 218.057205,238.527908 211.389542,237.105194 
	C210.989197,237.043488 210.588837,236.981781 210.060715,236.000839 
	C210.004730,216.403458 210.067032,196.804443 209.794022,177.210083 
	C209.738708,173.240936 211.166077,171.788239 214.798981,170.874588 
	C224.086182,168.538925 233.271332,165.797455 242.804184,163.251358 
	C242.804184,163.251358 243.006561,163.018280 243.817657,163.059586 
	C248.507401,161.687057 253.197128,160.314514 257.942566,158.989075 
	C257.942566,158.989075 257.977905,158.925247 258.780426,158.988373 
	C264.798828,156.982178 270.817230,154.975983 277.708252,153.047516 
	C283.139496,151.699341 288.570709,150.351166 294.705780,149.062622 
	C295.797791,148.706787 296.889771,148.350967 297.994934,148.003677 
	C297.994934,148.003677 298.001495,147.991486 298.703796,148.099411 
	C299.544769,147.760986 300.385712,147.422562 301.652557,147.134842 
	C301.652557,147.134842 302.010529,146.898560 302.806458,146.968872 
	C307.552643,145.323898 312.298859,143.678925 317.005127,141.996689 
	C317.005127,141.996689 317.029205,142.045013 317.665558,141.999527 
	C318.475586,141.357132 319.285645,140.714737 320.012970,140.008728 
	C320.012970,140.008728 320.066559,140.098251 320.736969,139.981201 
	C324.879059,135.038177 329.021149,130.095169 333.758972,124.844048 
	C338.950897,118.142960 344.302521,111.557701 349.276550,104.698601 
	C352.410309,100.377258 351.820038,97.154121 347.615570,93.911690 
	C342.227081,89.756149 336.633331,85.866768 330.836639,81.251724 
	C326.214508,77.738350 321.458862,74.004555 315.262756,75.192787 
	C309.694153,76.260681 304.307312,78.276421 298.925659,79.908234 
	C298.925659,79.908234 298.920471,79.816422 298.114746,79.851532 
	C293.540283,81.181061 288.965790,82.510597 284.166779,83.764778 
	C284.166779,83.764778 284.007202,83.939842 283.233826,83.897514 
	C281.107666,84.560814 278.981476,85.224113 276.949249,85.954231 
	C276.949249,85.954231 276.907990,85.846596 276.101746,85.840576 
	C269.022278,87.858887 261.942810,89.877205 254.943939,91.939034 
	C254.943939,91.939034 254.936737,91.847702 254.127686,91.836800 
	C249.650436,93.104492 245.173172,94.372192 240.707245,95.577454 
	C240.707245,95.577454 240.644379,95.568855 239.886337,95.638733 
	C237.694275,96.353836 235.502213,97.068939 233.156113,97.723457 
	C233.156113,97.723457 233.018997,97.816231 232.188370,97.805595 
	C224.931396,99.674698 217.674438,101.543808 209.917572,103.541656 
	C209.917572,96.443466 210.052780,90.152809 209.878372,83.870758 
	C209.713974,77.949265 207.638885,72.912567 201.801834,69.218025 
	C193.363419,64.804008 185.030396,64.216759 176.969894,69.964165 
	C176.969894,69.964165 176.910965,69.864014 176.252228,70.002197 
	C174.810242,71.654289 173.368240,73.306381 172.000412,74.983734 
	C172.000412,74.983734 171.950104,74.923683 171.386215,75.283226 
	C170.923294,76.524330 170.460373,77.765442 169.563782,79.564545 
	C169.510513,80.719910 169.457230,81.875275 169.267334,83.927193 
	C169.313019,86.955261 169.358688,89.983322 169.189941,93.924316 
	C169.183792,140.660736 169.149139,187.397171 169.182571,234.133560 
	C169.201614,260.742798 169.331879,287.351929 169.113739,314.771332 
	C169.211456,316.191193 169.309174,317.611053 169.290085,319.956421 
	C169.326355,327.624756 169.362640,335.293121 169.102692,343.861694 
	C169.198700,360.917816 169.294724,377.973969 169.275314,395.954071 
	C169.305832,401.289001 169.336334,406.623962 169.091949,412.846741 
	C169.469391,416.683777 169.846817,420.520782 170.894684,424.735077 
	C171.916290,424.758423 172.937881,424.781738 174.632919,425.052795 
	C175.103653,424.996857 175.574387,424.940918 176.970062,425.004059 
	C186.136139,425.024048 195.309143,424.840485 204.465347,425.151398 
	C208.929626,425.303009 210.080597,423.754089 210.056870,419.408203 
	C209.860291,383.410187 209.895218,347.410858 209.860443,311.411957 
	C209.858765,309.675873 209.860214,307.939819 209.860214,305.968292 
	C212.093353,306.152191 213.565964,306.273468 215.638565,306.736969 
	C216.095932,306.748138 216.553299,306.759338 217.711792,307.082703 
	C220.485474,307.565857 223.259171,308.049011 226.658691,308.783234 
	C227.105621,308.794342 227.552536,308.805450 228.700424,309.126129 
	C231.476334,309.565765 234.252258,310.005371 237.641602,310.754028 
	C238.095978,310.764771 238.550354,310.775482 239.721664,311.100189 
	C256.120239,314.300293 272.502563,317.587830 288.928741,320.639374 
	C293.059631,321.406799 296.783264,320.056885 299.417297,316.391357 
	C299.417297,316.391357 299.506714,316.392426 300.015686,316.228943 
	C300.311005,315.805969 300.606354,315.383026 301.421173,314.798645 
	C301.599731,314.495667 301.778320,314.192688 302.581238,313.672119 
	C305.069305,310.793335 307.557373,307.914581 310.000000,305.000000 
	C310.000000,305.000000 310.032196,305.048187 310.556976,304.930878 
	C310.712280,304.626129 310.867554,304.321381 311.000000,304.000000 
	C311.000000,304.000000 311.019745,304.020477 311.646454,303.783203 
	C313.102875,302.239197 314.606262,300.736420 316.007080,299.143524 
	C320.500183,294.034363 320.494354,290.621277 316.000000,284.999176 
	C316.000000,284.999176 316.059601,284.953186 315.969879,284.330475 
	C315.324310,283.542297 314.678772,282.754150 314.000000,282.000000 
	C314.000000,282.000000 314.036469,281.969818 313.954956,281.346588 
	C313.312866,280.552765 312.670807,279.758942 311.999146,278.998779 
	C311.999146,278.998779 312.035950,278.974915 311.948883,278.352417 
	C311.304626,277.561646 310.660400,276.770874 310.000000,276.000000 
	C310.000000,276.000000 310.020264,275.985748 309.940948,275.365509 
	C309.295685,274.574402 308.650421,273.783264 308.000000,273.000000 
	C308.000000,273.000000 308.007385,272.995728 307.940704,272.405243 
	C307.428467,271.821747 306.916199,271.238251 306.012787,270.994904 
	C306.140015,270.878052 306.267212,270.761230 306.248260,270.033630 
	C305.475769,269.061493 304.703247,268.089355 303.985718,267.048737 
	C303.985718,267.048737 303.898224,267.041504 303.892975,266.511810 
	C303.621124,266.305664 303.349304,266.099548 303.011383,265.973999 
M54.947838,149.891068 
	C54.318497,150.928192 53.689156,151.965302 52.843254,153.499084 
	C52.564934,153.727737 52.286613,153.956390 51.350037,154.285416 
	C44.345310,163.311295 37.241917,172.262924 30.374237,181.391891 
	C26.485390,186.561203 27.148176,190.266586 32.172039,194.061462 
	C38.790375,199.060730 45.319466,204.196457 52.165653,208.864777 
	C54.264462,210.295914 57.288696,210.986908 59.870811,210.942825 
	C63.446472,210.881790 67.045113,209.973694 70.562439,209.130234 
	C78.713097,207.175644 86.820854,205.042130 95.748344,203.060532 
	C113.195999,198.400604 130.618149,193.641113 148.111359,189.158997 
	C151.923889,188.182159 153.020309,186.334091 152.988647,182.558914 
	C152.827042,163.282150 152.921997,144.003296 152.902283,124.725182 
	C152.900681,123.151573 152.712158,121.578163 152.552536,119.107880 
	C138.247040,123.191925 124.615776,127.083488 110.185646,130.942520 
	C100.788574,133.647308 91.391510,136.352112 81.500877,138.797165 
	C81.332535,138.876068 81.164200,138.954956 80.194893,138.967606 
	C73.698448,141.202026 67.202003,143.436447 60.892979,145.769394 
	C60.892979,145.769394 60.749668,145.613525 60.166775,145.735565 
	C59.752163,146.137039 59.337547,146.538513 58.988525,147.001556 
	C58.988525,147.001556 58.945770,146.922531 58.322239,147.020508 
	C57.408104,147.846832 56.493969,148.673157 55.585884,149.590927 
	C55.585884,149.590927 55.495037,149.578873 54.947838,149.891068 
z"/>
<path fill="#0225C2" opacity="1.000000" stroke="none" 
	d="
M110.984505,130.975052 
	C124.615776,127.083488 138.247040,123.191925 152.552536,119.107880 
	C152.712158,121.578163 152.900681,123.151573 152.902283,124.725182 
	C152.921997,144.003296 152.827042,163.282150 152.988647,182.558914 
	C153.020309,186.334091 151.923889,188.182159 148.111359,189.158997 
	C130.618149,193.641113 113.195999,198.400604 94.883057,203.015320 
	C85.273857,203.068268 76.520264,202.315201 68.197998,206.557159 
	C65.816765,207.770905 61.913975,207.306732 59.196712,206.297928 
	C52.273949,203.727798 46.190456,199.356720 42.166817,193.214798 
	C40.482929,190.644394 40.209156,186.021637 41.268860,183.031860 
	C43.122631,177.801743 46.094082,172.819412 49.356651,168.278961 
	C52.583027,163.788849 55.398293,159.707001 52.008301,154.185043 
	C52.286613,153.956390 52.564934,153.727737 53.311069,153.205902 
	C54.350937,151.801422 54.922985,150.690155 55.495033,149.578873 
	C55.495037,149.578873 55.585884,149.590927 55.942329,149.676315 
	C57.181107,148.815323 58.063442,147.868927 58.945770,146.922531 
	C58.945770,146.922531 58.988525,147.001556 59.283691,146.964752 
	C59.969128,146.489807 60.359394,146.051666 60.749664,145.613525 
	C60.749668,145.613525 60.892979,145.769394 61.195618,145.820526 
	C64.003326,145.246674 66.508385,144.621704 69.087448,144.374146 
	C71.410919,144.894226 73.666801,145.216965 75.908356,145.137161 
	C79.235542,145.018692 80.972832,143.630676 79.363724,140.052521 
	C80.098709,139.683167 80.547279,139.358505 80.995857,139.033859 
	C81.164200,138.954956 81.332535,138.876068 81.755981,139.296722 
	C82.174271,142.509659 83.371353,142.929916 85.962822,142.197769 
	C91.780342,140.554214 97.775299,139.530685 103.573898,137.831238 
	C107.087486,136.801498 110.369118,134.980316 114.247589,133.301468 
	C112.741943,132.228027 111.863220,131.601532 110.984505,130.975052 
z"/>
<path fill="#0025C7" opacity="1.000000" stroke="none" 
	d="
M173.959488,424.805054 
	C172.937881,424.781738 171.916290,424.758423 170.540375,424.130951 
	C169.912994,419.670837 169.639923,415.814880 169.366852,411.958893 
	C169.336334,406.623962 169.305832,401.289001 169.568207,395.151367 
	C169.929276,378.652832 170.015167,362.957062 170.035782,347.261200 
	C170.037659,345.828217 169.621140,344.394714 169.398926,342.961456 
	C169.362640,335.293121 169.326355,327.624756 169.569305,319.236420 
	C169.703018,316.997986 169.557541,315.479553 169.412064,313.961121 
	C169.331879,287.351929 169.201614,260.742798 169.182571,234.133560 
	C169.149139,187.397171 169.183792,140.660736 169.656693,93.333221 
	C170.732330,86.802643 171.341217,80.863159 171.950104,74.923683 
	C171.950104,74.923683 172.000412,74.983734 172.316284,74.956192 
	C174.058426,73.240448 175.484695,71.552231 176.910965,69.864014 
	C176.910965,69.864014 176.969894,69.964165 177.328735,69.968559 
	C180.791107,69.318710 183.894638,68.664467 186.957123,68.368195 
	C185.503967,69.710655 184.199509,70.927864 182.661179,71.639473 
	C175.875488,74.778427 173.374054,86.112297 178.454010,91.598930 
	C179.041382,92.233322 180.558929,91.908325 181.420990,92.411964 
	C182.446762,93.011246 183.230240,94.025230 184.118698,94.859535 
	C183.816238,95.202278 183.513779,95.545021 183.211319,95.887756 
	C181.922501,95.539787 180.633698,95.191811 179.344879,94.843834 
	C185.752579,99.083237 181.834946,104.997833 182.011307,110.189857 
	C182.033752,110.851143 181.995163,111.572380 182.240112,112.159332 
	C184.886856,118.501762 183.892700,124.284859 179.919830,129.797058 
	C179.298447,130.659225 179.100143,132.530853 179.617233,133.382690 
	C181.498810,136.482315 183.767151,139.347122 185.678558,142.006714 
	C183.028015,147.103958 180.812653,151.785767 178.207748,156.239746 
	C176.144180,159.768143 176.610703,167.379486 179.591965,171.439362 
	C177.646774,174.592270 177.161194,188.345993 179.177078,189.655563 
	C180.177505,188.965103 181.259918,188.218079 182.342316,187.471039 
	C182.737900,189.932495 181.954651,193.400452 181.454681,193.360092 
	C178.385757,193.112274 176.961380,194.323471 177.085266,197.141510 
	C177.183075,199.366837 177.858383,201.569260 178.307281,203.775742 
	C178.576218,205.097794 179.410294,206.535217 179.117935,207.702225 
	C177.664551,213.504135 178.343140,218.687210 182.902054,223.005829 
	C181.880386,224.494507 180.974792,225.814056 180.046326,227.166916 
	C185.911926,234.706207 187.452332,243.046860 186.218124,252.110764 
	C186.029755,253.494156 186.598495,255.028976 187.012863,256.436096 
	C187.881195,259.384888 188.879929,262.295258 189.813202,265.184509 
	C190.967468,265.534515 192.393860,265.967010 193.820267,266.399506 
	C193.743988,266.785339 193.667709,267.171204 193.591446,267.557037 
	C192.423447,267.726227 191.255447,267.895447 189.156036,268.199554 
	C190.218002,273.508820 191.248001,278.475433 192.182510,283.460022 
	C192.413605,284.692719 192.638672,286.058136 192.349762,287.235779 
	C190.183777,296.064606 190.105789,304.786499 193.158905,313.451294 
	C193.448822,314.274109 193.321838,315.298798 193.195435,316.202759 
	C192.850357,318.670380 191.976440,321.145020 192.099014,323.577179 
	C192.263290,326.837372 193.101105,329.923828 190.747543,332.936432 
	C190.149048,333.702545 191.372208,335.795868 191.565887,337.304138 
	C191.753845,338.767731 191.921432,340.299103 191.693588,341.736603 
	C191.294907,344.251770 190.052582,346.728699 190.102737,349.202606 
	C190.296677,358.765686 190.819061,368.323425 191.308578,377.878571 
	C191.510895,381.827850 191.939026,385.765594 192.293747,390.063538 
	C189.736130,394.859375 186.503265,400.003418 184.306915,405.557373 
	C183.576889,407.403412 184.823837,410.985840 186.389877,412.550537 
	C188.482056,414.640930 191.642929,415.916443 194.564453,416.866730 
	C199.947540,418.617706 202.048599,417.550690 202.884979,412.007385 
	C203.757172,406.226685 203.767914,400.304596 203.979019,394.437958 
	C204.385056,383.153625 204.689880,371.865387 204.984909,360.577423 
	C205.066071,357.472382 204.896820,354.361176 204.959702,351.255157 
	C205.090027,344.815674 205.299683,338.377747 205.475433,331.939148 
	C205.653885,325.401794 205.763382,318.860992 206.094391,312.331390 
	C206.135376,311.523102 207.351212,310.774353 208.027405,310.466736 
	C208.034607,346.851562 207.979004,382.767822 208.120544,418.683350 
	C208.136383,422.704376 207.192490,424.237335 202.902588,424.097473 
	C193.934647,423.805176 184.949142,424.052338 175.688293,424.078522 
	C174.923645,424.321136 174.441574,424.563110 173.959488,424.805054 
z"/>
<path fill="#0027C0" opacity="1.000000" stroke="none" 
	d="
M292.504486,253.761337 
	C292.504486,253.761337 292.800659,253.819824 293.002502,254.173477 
	C293.509338,254.656189 293.814331,254.785263 294.119293,254.914322 
	C294.119293,254.914322 294.019806,254.993668 294.055176,255.295105 
	C296.417755,258.044189 298.744965,260.491821 301.072174,262.939484 
	C301.072174,262.939484 301.002716,262.999298 301.076843,263.205872 
	C301.309875,263.726654 301.557678,263.935303 301.894348,264.038452 
	C301.894348,264.038452 301.976562,264.063538 301.962677,264.393768 
	C302.336060,265.130005 302.723297,265.536041 303.110565,265.942047 
	C303.110565,265.942047 303.011383,265.973999 303.080566,266.184662 
	C303.399231,266.610718 303.648743,266.826111 303.898224,267.041504 
	C303.898224,267.041504 303.985718,267.048737 303.956360,267.439758 
	C304.749451,268.768616 305.571960,269.706512 306.394440,270.644379 
	C306.267212,270.761230 306.140015,270.878052 306.120667,271.164917 
	C306.821472,271.888550 307.414429,272.442139 308.007385,272.995728 
	C308.007385,272.995728 308.000000,273.000000 307.987549,273.351135 
	C308.656799,274.463440 309.338531,275.224609 310.020264,275.985748 
	C310.020264,275.985748 310.000000,276.000000 309.991455,276.346710 
	C310.667267,277.453918 311.351593,278.214417 312.035950,278.974915 
	C312.035950,278.974915 311.999146,278.998779 311.994812,279.339996 
	C312.672485,280.444092 313.354462,281.206940 314.036469,281.969818 
	C314.036469,281.969818 314.000000,282.000000 313.996155,282.341797 
	C314.681366,283.440155 315.370483,284.196686 316.059601,284.953186 
	C316.059601,284.953186 316.000000,284.999176 316.001099,285.361023 
	C319.305603,291.600983 317.561127,296.167786 312.551208,300.147766 
	C311.609497,300.895874 311.508636,302.702393 311.019775,304.020477 
	C311.019745,304.020477 311.000000,304.000000 310.767303,304.091217 
	C310.367126,304.471008 310.199646,304.759613 310.032196,305.048187 
	C310.032196,305.048187 310.000000,305.000000 309.672821,305.023193 
	C306.882721,307.994141 304.419800,310.941925 301.956909,313.889709 
	C301.778320,314.192688 301.599731,314.495667 300.845215,314.865845 
	C299.848145,314.960449 299.427032,314.987854 298.801208,314.750183 
	C297.730560,314.322998 296.864685,314.160889 296.033936,313.651489 
	C296.372253,312.723236 296.536224,311.977448 296.999573,311.586090 
	C303.529572,306.070190 304.676117,299.619446 300.242554,292.335968 
	C296.670837,286.468414 293.007233,280.946808 287.512909,276.237793 
	C281.971405,271.488373 276.227661,270.321167 269.729492,270.047119 
	C264.829346,269.840485 259.913757,269.946167 255.005875,269.996124 
	C252.206955,270.024597 249.380676,270.533173 246.617645,270.276764 
	C240.395096,269.699219 234.204269,268.780090 227.732803,267.714111 
	C221.417755,265.684021 215.370453,263.939850 211.192703,262.734894 
	C206.188248,254.240326 202.169922,247.509232 198.259079,240.716248 
	C197.320282,239.085587 196.118805,237.258575 196.092804,235.506210 
	C195.920532,223.896744 196.022598,212.282913 196.097107,200.670898 
	C196.100693,200.112015 196.686127,199.556870 197.373672,198.923645 
	C199.964722,194.742905 200.870255,190.721237 197.000000,186.750458 
	C197.000000,186.333542 197.000000,186.166763 197.364441,185.956940 
	C198.439728,185.122864 199.920990,184.000214 199.744858,183.591064 
	C197.425903,178.204269 201.890030,174.601669 203.234497,170.241501 
	C203.553864,169.205780 205.696198,168.732178 206.958649,168.369720 
	C202.944901,172.878952 204.106857,178.069031 203.700638,183.038040 
	C203.082428,183.484314 202.763077,183.891937 202.443726,184.299561 
	C202.962280,184.533234 203.480835,184.766922 203.999619,185.444672 
	C203.999863,195.947586 203.999405,206.006439 204.000122,216.065277 
	C204.000595,222.459976 203.634567,228.888153 204.211380,235.230530 
	C204.403687,237.345108 206.865723,239.389847 208.632431,241.116287 
	C209.012573,241.487747 210.870239,240.347198 212.416199,239.921600 
	C213.526733,239.946716 214.268356,239.953369 215.065430,240.320923 
	C215.420120,241.061127 215.662704,241.702423 216.026978,241.781204 
	C224.234772,243.556931 232.440262,245.355652 240.695938,246.880829 
	C241.643341,247.055862 242.884872,245.638748 244.396332,245.010162 
	C249.614288,246.028519 254.423233,247.010254 259.238251,247.961075 
	C265.165405,249.131500 271.082642,250.361725 277.032257,251.405930 
	C282.169220,252.307526 287.345551,252.984879 292.504486,253.761337 
z"/>
<path fill="#052CCA" opacity="1.000000" stroke="none" 
	d="
M63.416645,250.958801 
	C63.416649,250.958801 63.059177,250.636826 62.958351,250.145264 
	C62.608505,249.421143 62.359482,249.188614 62.110462,248.956070 
	C62.110462,248.956070 62.034279,248.931183 62.053307,248.482086 
	C61.693069,244.993210 61.313805,241.953445 60.934540,238.913666 
	C60.934540,238.913666 60.989159,238.979858 61.251450,238.861816 
	C61.900406,238.043335 62.287079,237.342911 62.673744,236.642471 
	C62.673744,236.642471 62.889019,236.858810 63.057682,236.752289 
	C63.339958,236.304230 63.453571,235.962662 63.567184,235.621109 
	C63.718586,235.709000 63.869984,235.796890 64.144539,235.767517 
	C64.840324,234.758240 65.412964,233.866211 65.985603,232.974182 
	C65.985603,232.974182 66.001778,233.000336 66.232712,232.902374 
	C66.637611,232.511108 66.811577,232.217819 66.985542,231.924530 
	C67.025345,231.592773 67.180634,231.328995 67.931244,230.962250 
	C68.578659,230.479462 68.746223,230.167587 68.913788,229.855713 
	C68.913788,229.855713 68.960205,229.952881 69.271820,229.929504 
	C70.944557,228.163239 72.305672,226.420334 73.666779,224.677444 
	C73.666779,224.677444 73.843010,224.874786 74.050461,224.763947 
	C74.506157,224.101181 74.754387,223.549286 75.002625,222.997375 
	C75.002625,222.997375 75.000000,223.000610 75.322556,222.986816 
	C75.923103,222.491287 76.201088,222.009537 76.479080,221.527802 
	C76.479080,221.527802 76.573349,221.551239 76.860748,221.559036 
	C77.247986,221.240738 77.347816,220.914658 77.447655,220.588562 
	C77.447655,220.588562 77.544968,220.591736 77.850586,220.589371 
	C78.437820,220.048813 78.719429,219.510605 79.001038,218.972397 
	C79.494759,218.381195 79.988480,217.789978 81.179123,217.110962 
	C85.584373,216.694046 89.292717,216.364960 92.954254,216.396881 
	C92.102249,217.484756 91.406532,218.634583 90.475540,218.875610 
	C74.495323,223.012634 68.720535,247.540283 78.117561,258.692474 
	C79.903389,260.811859 81.357635,263.362946 82.377617,265.946686 
	C85.390724,273.579315 91.327759,278.207916 98.822357,279.589996 
	C112.911125,282.188141 127.186569,283.833496 141.433182,285.443390 
	C143.282501,285.652374 145.520355,283.443756 147.395233,282.099670 
	C149.045609,280.916504 150.439758,279.375885 151.961700,278.460114 
	C151.976334,283.481110 151.976334,288.035156 151.976334,292.957733 
	C144.739410,291.829590 138.303986,290.917633 131.905090,289.797058 
	C127.587799,289.041046 123.322014,287.990906 119.033188,287.072327 
	C111.849831,285.788605 104.676971,284.440643 97.476135,283.263885 
	C95.543930,282.948151 93.235207,283.768188 91.607384,282.995911 
	C87.961304,281.266205 84.634521,278.863464 81.012238,276.165894 
	C80.586914,275.390747 80.327080,275.184540 80.067245,274.978363 
	C80.067245,274.978363 79.999596,274.980225 80.022942,274.600830 
	C79.348305,273.491638 78.650322,272.761810 77.952339,272.032013 
	C77.952339,272.032013 78.004112,272.007263 78.004562,271.665863 
	C77.306786,270.571106 76.608551,269.817719 75.910316,269.064362 
	C75.910316,269.064362 76.002220,269.015900 75.993164,268.683777 
	C75.270500,267.604828 74.556885,266.858002 73.843277,266.111176 
	C73.843277,266.111176 73.967781,266.035645 73.933968,265.756104 
	C73.434952,265.162933 72.969757,264.849335 72.504555,264.535706 
	C72.504555,264.535706 72.510193,264.433228 72.580734,264.176575 
	C72.288322,263.594025 71.925362,263.268127 71.562393,262.942261 
	C71.422913,262.831726 71.283424,262.721191 71.006363,262.110413 
	C70.624222,261.389435 70.379646,261.168610 70.135071,260.947815 
	C70.135063,260.947815 70.038406,260.907379 70.045288,260.574280 
	C69.682915,259.833984 69.313644,259.426819 68.944374,259.019653 
	C68.944374,259.019653 69.001068,259.004364 68.991707,258.736816 
	C68.486717,257.966583 67.991081,257.463898 67.495453,256.961212 
	C67.364822,256.841187 67.234207,256.721130 67.039062,256.006256 
	C66.276772,254.626373 65.578995,253.841370 64.881226,253.056351 
	C64.881226,253.056351 64.973167,253.030212 64.963028,252.767365 
	C64.440804,251.989273 63.928722,251.474045 63.416645,250.958801 
z"/>
<path fill="#0228C7" opacity="1.000000" stroke="none" 
	d="
M203.999481,182.999390 
	C204.106857,178.069031 202.944901,172.878952 207.282379,168.206940 
	C208.330078,167.203949 208.950546,166.494339 209.704514,166.298370 
	C224.345551,162.492966 238.985703,158.681152 253.666840,155.034943 
	C257.496002,154.083923 261.540009,153.980865 265.351471,152.979065 
	C275.725525,150.252304 286.042389,147.303253 296.352203,144.338989 
	C300.938263,143.020432 305.452942,141.453552 310.369690,139.960236 
	C314.159180,138.947037 317.578979,137.972992 320.868958,137.301941 
	C320.514923,138.436020 320.290741,139.267136 320.066528,140.098251 
	C320.066559,140.098251 320.012970,140.008728 319.689850,140.018692 
	C318.587555,140.700775 317.808380,141.372894 317.029205,142.045013 
	C317.029205,142.045013 317.005127,141.996689 316.619141,142.000519 
	C311.492310,143.635742 306.751434,145.267166 302.010529,146.898560 
	C302.010529,146.898560 301.652557,147.134842 301.080505,147.081573 
	C299.672791,147.349350 298.837158,147.670425 298.001495,147.991486 
	C298.001495,147.991486 297.994934,148.003677 297.623718,147.995636 
	C296.169006,148.326080 295.085480,148.664536 294.001953,149.003006 
	C288.570709,150.351166 283.139496,151.699341 276.893860,153.011810 
	C270.045593,154.959152 264.011749,156.942200 257.977905,158.925247 
	C257.977905,158.925247 257.942566,158.989075 257.503174,158.948395 
	C252.378036,160.277893 247.692307,161.648087 243.006561,163.018280 
	C243.006561,163.018280 242.804184,163.251358 242.212097,163.156570 
	C231.467239,165.455765 221.262711,167.663300 211.219101,170.450638 
	C209.761658,170.855118 208.191162,174.025696 208.168259,175.934219 
	C207.942200,194.763199 207.983154,213.596329 208.125793,232.426956 
	C208.137161,233.929794 209.469833,235.422607 210.188492,236.920090 
	C210.588837,236.981781 210.989197,237.043488 211.669907,237.553787 
	C211.982620,238.635971 212.014954,239.269547 212.047287,239.903137 
	C210.870239,240.347198 209.012573,241.487747 208.632431,241.116287 
	C206.865723,239.389847 204.403687,237.345108 204.211380,235.230530 
	C203.634567,228.888153 204.000595,222.459976 204.000122,216.065277 
	C203.999405,206.006439 203.999863,195.947586 203.999924,185.111145 
	C203.999832,183.888809 203.999664,183.444107 203.999481,182.999390 
z"/>
<path fill="#072DC6" opacity="1.000000" stroke="none" 
	d="
M51.679169,154.235229 
	C55.398293,159.707001 52.583027,163.788849 49.356651,168.278961 
	C46.094082,172.819412 43.122631,177.801743 41.268860,183.031860 
	C40.209156,186.021637 40.482929,190.644394 42.166817,193.214798 
	C46.190456,199.356720 52.273949,203.727798 59.196712,206.297928 
	C61.913975,207.306732 65.816765,207.770905 68.197998,206.557159 
	C76.520264,202.315201 85.273857,203.068268 94.481888,202.975632 
	C86.820854,205.042130 78.713097,207.175644 70.562439,209.130234 
	C67.045113,209.973694 63.446472,210.881790 59.870811,210.942825 
	C57.288696,210.986908 54.264462,210.295914 52.165653,208.864777 
	C45.319466,204.196457 38.790375,199.060730 32.172039,194.061462 
	C27.148176,190.266586 26.485390,186.561203 30.374237,181.391891 
	C37.241917,172.262924 44.345310,163.311295 51.679169,154.235229 
z"/>
<path fill="#0026C6" opacity="1.000000" stroke="none" 
	d="
M284.007202,83.939835 
	C284.007202,83.939842 284.166779,83.764778 284.756836,83.847252 
	C290.394989,84.286293 294.954742,83.031479 298.920471,79.816422 
	C298.920471,79.816422 298.925659,79.908234 299.328064,79.935516 
	C302.421112,79.517128 305.103729,78.770470 307.804321,78.698769 
	C311.528046,78.599899 315.412903,74.563698 318.673279,79.141426 
	C313.339020,80.653564 308.316040,81.955894 303.335419,83.403900 
	C293.727631,86.197151 284.190186,89.243141 274.538574,91.872215 
	C261.649048,95.383278 248.699539,98.681450 235.735382,101.908737 
	C227.251129,104.020805 218.724304,105.997208 210.140686,107.637352 
	C208.830978,107.887596 206.179565,106.291573 205.761673,105.019554 
	C204.698624,101.783882 203.922104,98.186974 204.246231,94.852783 
	C204.477875,92.469887 206.676956,90.278252 207.998871,88.468231 
	C208.000412,92.908615 208.035553,96.882416 207.991302,100.855331 
	C207.955521,104.069778 209.262466,105.528885 212.584457,104.666000 
	C216.672058,103.604233 220.828308,102.761887 224.840240,101.468925 
	C227.665451,100.558418 230.299561,99.054939 233.018997,97.816223 
	C233.018997,97.816231 233.156113,97.723457 233.717499,97.817200 
	C236.423721,97.192749 239.920105,100.147926 240.644379,95.568855 
	C240.644379,95.568855 240.707245,95.577454 241.148926,95.725502 
	C246.628860,96.486015 250.959335,94.752083 254.936737,91.847702 
	C254.936737,91.847702 254.943939,91.939034 255.353546,91.956146 
	C260.659851,90.915245 265.596283,90.007919 270.435699,88.732567 
	C272.690094,88.138466 274.756409,86.830811 276.907990,85.846596 
	C276.907990,85.846596 276.949249,85.954231 277.338257,85.961792 
	C279.820587,85.292839 281.913879,84.616341 284.007202,83.939835 
z"/>
<path fill="#0025C7" opacity="1.000000" stroke="none" 
	d="
M295.998779,313.998779 
	C296.864685,314.160889 297.730560,314.322998 298.886230,315.108978 
	C299.286224,315.952698 299.396454,316.172546 299.506714,316.392426 
	C299.506714,316.392426 299.417297,316.391357 299.030304,316.314636 
	C295.366028,317.148407 291.931793,319.194458 288.839447,318.767029 
	C277.277588,317.168915 265.843018,314.671387 254.328659,312.698120 
	C249.260315,311.829529 244.115067,311.409760 239.004730,310.786194 
	C238.550354,310.775482 238.095978,310.764771 237.214813,310.283661 
	C233.858521,309.481049 230.928986,309.148773 227.999466,308.816528 
	C227.552536,308.805450 227.105621,308.794342 226.241684,308.333252 
	C222.886673,307.512329 219.948669,307.141418 217.010666,306.770508 
	C216.553299,306.759338 216.095932,306.748138 215.247650,306.277466 
	C213.570557,305.227325 212.284378,304.636688 211.065735,303.676025 
	C213.088837,302.537354 215.044418,301.768677 217.426544,301.000000 
	C221.551682,301.668030 225.244537,302.369659 228.949936,302.997223 
	C237.382080,304.425354 246.038101,305.056366 254.207321,307.394379 
	C267.927979,311.321228 281.782043,313.604431 295.998779,313.998779 
z"/>
<path fill="#072DBE" opacity="1.000000" stroke="none" 
	d="
M331.128052,81.862701 
	C336.633331,85.866768 342.227081,89.756149 347.615570,93.911690 
	C351.820038,97.154121 352.410309,100.377258 349.276550,104.698601 
	C344.302521,111.557701 338.950897,118.142960 333.382355,124.924522 
	C333.005737,125.004997 332.848633,124.857483 332.901978,124.504478 
	C335.033356,120.647308 337.178101,117.180481 339.169250,113.627609 
	C340.880524,110.574112 344.662659,107.016350 337.650665,105.482162 
	C337.173584,105.377777 336.824371,104.506950 336.493378,103.946663 
	C334.524384,100.613609 332.578308,97.267036 330.590210,93.866318 
	C335.462402,89.313950 335.455444,89.318901 331.338165,83.544518 
	C331.064331,83.160500 331.014832,82.616516 330.927826,82.075943 
	C330.994659,82.004951 331.128052,81.862694 331.128052,81.862701 
z"/>
<path fill="#2243BA" opacity="1.000000" stroke="none" 
	d="
M210.998199,304.046051 
	C212.284378,304.636688 213.570557,305.227325 214.947647,306.106354 
	C213.565964,306.273468 212.093353,306.152191 209.860214,305.968292 
	C209.860214,307.939819 209.858765,309.675873 209.860443,311.411957 
	C209.895218,347.410858 209.860291,383.410187 210.056870,419.408203 
	C210.080597,423.754089 208.929626,425.303009 204.465347,425.151398 
	C195.309143,424.840485 186.136139,425.024048 176.487411,424.742889 
	C176.004761,424.481720 175.970840,424.077881 175.970840,424.077881 
	C184.949142,424.052338 193.934647,423.805176 202.902588,424.097473 
	C207.192490,424.237335 208.136383,422.704376 208.120544,418.683350 
	C207.979004,382.767822 208.034607,346.851562 208.029755,310.095215 
	C209.017609,307.518646 210.007904,305.782349 210.998199,304.046051 
z"/>
<path fill="#2243BA" opacity="1.000000" stroke="none" 
	d="
M119.209068,287.388794 
	C123.322014,287.990906 127.587799,289.041046 131.905090,289.797058 
	C138.303986,290.917633 144.739410,291.829590 151.976334,292.957733 
	C151.976334,288.035156 151.976334,283.481110 151.976562,278.002991 
	C151.968964,273.721222 151.961151,270.363617 151.969086,266.537018 
	C151.986923,254.630646 151.949142,243.193008 152.019196,231.756012 
	C152.036667,228.902969 151.552307,226.746979 147.756042,226.661331 
	C129.311646,222.939133 111.156349,219.487503 93.001053,216.035873 
	C89.292717,216.364960 85.584373,216.694046 81.460037,217.027130 
	C84.107567,214.324631 87.426407,213.709167 91.565384,214.520798 
	C110.312729,218.197006 129.104935,221.656876 147.927597,224.926346 
	C151.827484,225.603760 153.135788,227.083466 153.098679,231.051117 
	C152.914810,250.702698 153.013474,270.356873 152.995316,290.010132 
	C152.994110,291.308014 152.849579,292.605804 152.723694,294.703766 
	C144.792282,293.250244 137.190643,291.946960 129.631561,290.431519 
	C126.172844,289.738129 122.797882,288.626984 119.209068,287.388794 
z"/>
<path fill="#2243BA" opacity="1.000000" stroke="none" 
	d="
M210.124603,236.460464 
	C209.469833,235.422607 208.137161,233.929794 208.125793,232.426956 
	C207.983154,213.596329 207.942200,194.763199 208.168259,175.934219 
	C208.191162,174.025696 209.761658,170.855118 211.219101,170.450638 
	C221.262711,167.663300 231.467239,165.455765 242.058655,163.140045 
	C233.271332,165.797455 224.086182,168.538925 214.798981,170.874588 
	C211.166077,171.788239 209.738708,173.240936 209.794022,177.210083 
	C210.067032,196.804443 210.004730,216.403458 210.124603,236.460464 
z"/>
<path fill="#072DBE" opacity="1.000000" stroke="none" 
	d="
M232.603683,97.810913 
	C230.299561,99.054939 227.665451,100.558418 224.840240,101.468925 
	C220.828308,102.761887 216.672058,103.604233 212.584457,104.666000 
	C209.262466,105.528885 207.955521,104.069778 207.991302,100.855331 
	C208.035553,96.882416 208.000412,92.908615 207.999603,88.036301 
	C207.999634,84.936989 207.999634,82.736588 207.999634,80.541283 
	C206.912094,80.541283 206.511520,80.414330 206.306686,80.560913 
	C204.244446,82.036736 202.356888,84.506493 199.772614,81.205322 
	C197.709167,78.569466 197.674881,76.355339 200.350571,73.995316 
	C201.270416,73.183998 201.379150,71.453056 201.933899,70.064896 
	C202.009384,69.987549 202.159851,69.832344 202.159851,69.832344 
	C207.638885,72.912567 209.713974,77.949265 209.878372,83.870758 
	C210.052780,90.152809 209.917572,96.443466 209.917572,103.541656 
	C217.674438,101.543808 224.931396,99.674698 232.603683,97.810913 
z"/>
<path fill="#072DC6" opacity="1.000000" stroke="none" 
	d="
M110.585075,130.958786 
	C111.863220,131.601532 112.741943,132.228027 114.247589,133.301468 
	C110.369118,134.980316 107.087486,136.801498 103.573898,137.831238 
	C97.775299,139.530685 91.780342,140.554214 85.962822,142.197769 
	C83.371353,142.929916 82.174271,142.509659 82.002762,139.426605 
	C91.391510,136.352112 100.788574,133.647308 110.585075,130.958786 
M108.799652,132.399490 
	C108.795006,132.792404 108.790359,133.185303 108.785713,133.578217 
	C108.949310,133.579666 109.255051,133.592300 109.255943,133.580948 
	C109.286766,133.189529 109.288773,132.795868 108.799652,132.399490 
z"/>
<path fill="#2243BA" opacity="1.000000" stroke="none" 
	d="
M239.363190,310.943176 
	C244.115067,311.409760 249.260315,311.829529 254.328659,312.698120 
	C265.843018,314.671387 277.277588,317.168915 288.839447,318.767029 
	C291.931793,319.194458 295.366028,317.148407 299.024963,316.359039 
	C296.783264,320.056885 293.059631,321.406799 288.928741,320.639374 
	C272.502563,317.587830 256.120239,314.300293 239.363190,310.943176 
z"/>
<path fill="#2243BA" opacity="1.000000" stroke="none" 
	d="
M292.271973,253.457825 
	C287.345551,252.984879 282.169220,252.307526 277.032257,251.405930 
	C271.082642,250.361725 265.165405,249.131500 259.238251,247.961075 
	C254.423233,247.010254 249.614288,246.028519 244.024261,244.846436 
	C240.858124,244.407547 238.409637,244.427719 236.107758,243.856781 
	C234.919098,243.561951 233.990906,242.217102 232.945023,241.346680 
	C251.403183,244.845459 269.863586,248.332642 288.314697,251.868149 
	C289.591553,252.112808 290.799500,252.717224 292.271973,253.457825 
z"/>
<path fill="#0228C7" opacity="1.000000" stroke="none" 
	d="
M232.632599,241.239532 
	C233.990906,242.217102 234.919098,243.561951 236.107758,243.856781 
	C238.409637,244.427719 240.858124,244.407547 243.617950,244.796082 
	C242.884872,245.638748 241.643341,247.055862 240.695938,246.880829 
	C232.440262,245.355652 224.234772,243.556931 216.026978,241.781204 
	C215.662704,241.702423 215.420120,241.061127 215.498489,240.321228 
	C218.380417,240.481445 220.864792,241.249069 223.394653,241.453415 
	C225.907532,241.656357 228.466171,241.292694 231.004745,241.177521 
	C231.443222,241.162476 231.881683,241.147430 232.632599,241.239532 
z"/>
<path fill="#072DBE" opacity="1.000000" stroke="none" 
	d="
M319.003662,78.997437 
	C315.412903,74.563698 311.528046,78.599899 307.804321,78.698769 
	C305.103729,78.770470 302.421112,79.517128 299.285400,79.918427 
	C304.307312,78.276421 309.694153,76.260681 315.262756,75.192787 
	C321.458862,74.004555 326.214508,77.738350 330.982361,81.557205 
	C331.128052,81.862694 330.994659,82.004951 330.591675,82.025574 
	C328.791382,81.367897 327.394073,80.689606 325.694885,79.859627 
	C323.595306,79.471497 321.797638,79.235046 319.750916,78.998230 
	C319.501831,78.997856 319.003662,78.997437 319.003662,78.997437 
z"/>
<path fill="#4365DC" opacity="1.000000" stroke="none" 
	d="
M169.250793,343.411560 
	C169.621140,344.394714 170.037659,345.828217 170.035782,347.261200 
	C170.015167,362.957062 169.929276,378.652832 169.625916,394.689362 
	C169.294724,377.973969 169.198700,360.917816 169.250793,343.411560 
z"/>
<path fill="#072DBE" opacity="1.000000" stroke="none" 
	d="
M186.998169,68.010223 
	C183.894638,68.664467 180.791107,69.318710 177.278870,69.938751 
	C185.030396,64.216759 193.363419,64.804008 201.980835,69.525185 
	C202.159851,69.832344 202.009384,69.987549 201.544891,70.017319 
	C197.385315,69.367104 193.690216,68.687126 189.620514,68.005302 
	C188.496674,68.005714 187.747421,68.007973 186.998169,68.010223 
z"/>
<path fill="#072DBE" opacity="1.000000" stroke="none" 
	d="
M320.401733,140.039734 
	C320.290741,139.267136 320.514923,138.436020 321.171936,137.153809 
	C322.444305,135.721466 323.236908,134.694916 324.132050,133.767365 
	C327.017242,130.777771 329.940216,127.824661 332.848633,124.857483 
	C332.848633,124.857483 333.005737,125.004997 333.084473,125.078568 
	C329.021149,130.095169 324.879059,135.038177 320.401733,140.039734 
z"/>
<path fill="#2243BA" opacity="1.000000" stroke="none" 
	d="
M311.333130,303.901855 
	C311.508636,302.702393 311.609497,300.895874 312.551208,300.147766 
	C317.561127,296.167786 319.305603,291.600983 316.027344,285.333801 
	C320.494354,290.621277 320.500183,294.034363 316.007080,299.143524 
	C314.606262,300.736420 313.102875,302.239197 311.333130,303.901855 
z"/>
<path fill="#072DBE" opacity="1.000000" stroke="none" 
	d="
M276.504883,85.843582 
	C274.756409,86.830811 272.690094,88.138466 270.435699,88.732567 
	C265.596283,90.007919 260.659851,90.915245 255.313232,91.934387 
	C261.942810,89.877205 269.022278,87.858887 276.504883,85.843582 
z"/>
<path fill="#2243BA" opacity="1.000000" stroke="none" 
	d="
M230.648209,241.016190 
	C228.466171,241.292694 225.907532,241.656357 223.394653,241.453415 
	C220.864792,241.249069 218.380417,240.481445 215.443054,239.960327 
	C214.268356,239.953369 213.526733,239.946716 212.416199,239.921600 
	C212.014954,239.269547 211.982620,238.635971 211.945129,237.683411 
	C218.057205,238.527908 224.174438,239.691391 230.648209,241.016190 
z"/>
<path fill="#0A2DC1" opacity="1.000000" stroke="none" 
	d="
M69.013451,143.996719 
	C66.508385,144.621704 64.003326,145.246674 61.101906,145.771255 
	C67.202003,143.436447 73.698448,141.202026 80.595375,139.000732 
	C80.547279,139.358505 80.098709,139.683167 79.015396,140.159363 
	C75.258263,141.539520 72.135857,142.768127 69.013451,143.996719 
z"/>
<path fill="#072DBE" opacity="1.000000" stroke="none" 
	d="
M171.668167,75.103455 
	C171.341217,80.863159 170.732330,86.802643 169.763901,92.876755 
	C169.358688,89.983322 169.313019,86.955261 169.559448,83.208588 
	C169.900192,81.328835 169.948822,80.167686 169.997467,79.006546 
	C170.460373,77.765442 170.923294,76.524330 171.668167,75.103455 
z"/>
<path fill="#2243BA" opacity="1.000000" stroke="none" 
	d="
M258.379150,158.956818 
	C264.011749,156.942200 270.045593,154.959152 276.457520,152.972961 
	C270.817230,154.975983 264.798828,156.982178 258.379150,158.956818 
z"/>
<path fill="#072DBE" opacity="1.000000" stroke="none" 
	d="
M254.532211,91.842255 
	C250.959335,94.752083 246.628860,96.486015 241.143265,95.756714 
	C245.173172,94.372192 249.650436,93.104492 254.532211,91.842255 
z"/>
<path fill="#072DBE" opacity="1.000000" stroke="none" 
	d="
M302.408508,146.933716 
	C306.751434,145.267166 311.492310,143.635742 316.639099,142.019135 
	C312.298859,143.678925 307.552643,145.323898 302.408508,146.933716 
z"/>
<path fill="#072DBE" opacity="1.000000" stroke="none" 
	d="
M298.517609,79.833977 
	C294.954742,83.031479 290.394989,84.286293 284.869141,83.884933 
	C288.965790,82.510597 293.540283,81.181061 298.517609,79.833977 
z"/>
<path fill="#2243BA" opacity="1.000000" stroke="none" 
	d="
M302.269043,313.780914 
	C304.419800,310.941925 306.882721,307.994141 309.695557,305.041077 
	C307.557373,307.914581 305.069305,310.793335 302.269043,313.780914 
z"/>
<path fill="#2243BA" opacity="1.000000" stroke="none" 
	d="
M300.996796,262.604370 
	C298.744965,260.491821 296.417755,258.044189 294.088684,255.241013 
	C296.365021,257.346741 298.643219,259.807983 300.996796,262.604370 
z"/>
<path fill="#2243BA" opacity="1.000000" stroke="none" 
	d="
M243.412109,163.038940 
	C247.692307,161.648087 252.378036,160.277893 257.475342,158.924850 
	C253.197128,160.314514 248.507401,161.687057 243.412109,163.038940 
z"/>
<path fill="#2243BA" opacity="1.000000" stroke="none" 
	d="
M217.361237,306.926605 
	C219.948669,307.141418 222.886673,307.512329 225.928772,308.207703 
	C223.259171,308.049011 220.485474,307.565857 217.361237,306.926605 
z"/>
<path fill="#2243BA" opacity="1.000000" stroke="none" 
	d="
M228.349945,308.971313 
	C230.928986,309.148773 233.858521,309.481049 236.908112,310.129150 
	C234.252258,310.005371 231.476334,309.565765 228.349945,308.971313 
z"/>
<path fill="#2243BA" opacity="1.000000" stroke="none" 
	d="
M60.641510,239.092468 
	C61.313805,241.953445 61.693069,244.993210 62.075340,248.448608 
	C61.501724,245.666580 60.925098,242.468933 60.641510,239.092468 
z"/>
<path fill="#4365DC" opacity="1.000000" stroke="none" 
	d="
M169.229401,412.402832 
	C169.639923,415.814880 169.912994,419.670837 170.205139,423.942322 
	C169.846817,420.520782 169.469391,416.683777 169.229401,412.402832 
z"/>
<path fill="#072DBE" opacity="1.000000" stroke="none" 
	d="
M176.581604,69.933105 
	C175.484695,71.552231 174.058426,73.240448 172.279205,74.943573 
	C173.368240,73.306381 174.810242,71.654289 176.581604,69.933105 
z"/>
<path fill="#2243BA" opacity="1.000000" stroke="none" 
	d="
M73.367279,224.802841 
	C72.305672,226.420334 70.944557,228.163239 69.224136,229.904495 
	C70.265816,228.244659 71.666794,226.586441 73.367279,224.802841 
z"/>
<path fill="#072DBE" opacity="1.000000" stroke="none" 
	d="
M240.265350,95.603790 
	C239.920105,100.147926 236.423721,97.192749 233.794525,97.847488 
	C235.502213,97.068939 237.694275,96.353836 240.265350,95.603790 
z"/>
<path fill="#072DBE" opacity="1.000000" stroke="none" 
	d="
M283.620514,83.918671 
	C281.913879,84.616341 279.820587,85.292839 277.291290,85.928375 
	C278.981476,85.224113 281.107666,84.560814 283.620514,83.918671 
z"/>
<path fill="#0A2DC1" opacity="1.000000" stroke="none" 
	d="
M58.634007,146.971527 
	C58.063442,147.868927 57.181107,148.815323 55.939301,149.630585 
	C56.493969,148.673157 57.408104,147.846832 58.634007,146.971527 
z"/>
<path fill="#0A2DC1" opacity="1.000000" stroke="none" 
	d="
M55.221436,149.734970 
	C54.922985,150.690155 54.350937,151.801422 53.419350,152.957565 
	C53.689156,151.965302 54.318497,150.928192 55.221436,149.734970 
z"/>
<path fill="#2243BA" opacity="1.000000" stroke="none" 
	d="
M306.321350,270.338989 
	C305.571960,269.706512 304.749451,268.768616 303.928864,267.473999 
	C304.703247,268.089355 305.475769,269.061493 306.321350,270.338989 
z"/>
<path fill="#2243BA" opacity="1.000000" stroke="none" 
	d="
M77.987305,272.340393 
	C78.650322,272.761810 79.348305,273.491638 80.041557,274.572571 
	C79.365311,274.165405 78.693794,273.407074 77.987305,272.340393 
z"/>
<path fill="#2243BA" opacity="1.000000" stroke="none" 
	d="
M309.980591,275.675629 
	C309.338531,275.224609 308.656799,274.463440 307.990112,273.347229 
	C308.650421,273.783264 309.295685,274.574402 309.980591,275.675629 
z"/>
<path fill="#2243BA" opacity="1.000000" stroke="none" 
	d="
M316.014740,284.641846 
	C315.370483,284.196686 314.681366,283.440155 314.012756,282.324799 
	C314.678772,282.754150 315.324310,283.542297 316.014740,284.641846 
z"/>
<path fill="#2243BA" opacity="1.000000" stroke="none" 
	d="
M73.887962,266.423065 
	C74.556885,266.858002 75.270500,267.604828 75.955223,268.719360 
	C75.261780,268.303040 74.597214,267.519012 73.887962,266.423065 
z"/>
<path fill="#2243BA" opacity="1.000000" stroke="none" 
	d="
M313.995728,281.658203 
	C313.354462,281.206940 312.672485,280.444092 312.009583,279.323181 
	C312.670807,279.758942 313.312866,280.552765 313.995728,281.658203 
z"/>
<path fill="#2243BA" opacity="1.000000" stroke="none" 
	d="
M75.945236,269.376373 
	C76.608551,269.817719 77.306786,270.571106 77.983696,271.686157 
	C77.301643,271.261383 76.640907,270.474884 75.945236,269.376373 
z"/>
<path fill="#2243BA" opacity="1.000000" stroke="none" 
	d="
M311.992432,278.663666 
	C311.351593,278.214417 310.667267,277.453918 309.999542,276.336761 
	C310.660400,276.770874 311.304626,277.561646 311.992432,278.663666 
z"/>
<path fill="#4365DC" opacity="1.000000" stroke="none" 
	d="
M169.262909,314.366211 
	C169.557541,315.479553 169.703018,316.997986 169.627701,318.773682 
	C169.309174,317.611053 169.211456,316.191193 169.262909,314.366211 
z"/>
<path fill="#072DBE" opacity="1.000000" stroke="none" 
	d="
M317.347382,142.022278 
	C317.808380,141.372894 318.587555,140.700775 319.731201,140.050507 
	C319.285645,140.714737 318.475586,141.357132 317.347382,142.022278 
z"/>
<path fill="#4365DC" opacity="1.000000" stroke="none" 
	d="
M169.780609,79.285545 
	C169.948822,80.167686 169.900192,81.328835 169.627747,82.760307 
	C169.457230,81.875275 169.510513,80.719910 169.780609,79.285545 
z"/>
<path fill="#2243BA" opacity="1.000000" stroke="none" 
	d="
M64.937836,253.369415 
	C65.578995,253.841370 66.276772,254.626373 66.973946,255.748260 
	C66.313713,255.284225 65.654083,254.483353 64.937836,253.369415 
z"/>
<path fill="#2243BA" opacity="1.000000" stroke="none" 
	d="
M65.699127,233.088150 
	C65.412964,233.866211 64.840324,234.758240 63.921581,235.627533 
	C64.187866,234.803894 64.800262,234.003006 65.699127,233.088150 
z"/>
<path fill="#2243BA" opacity="1.000000" stroke="none" 
	d="
M307.974060,272.700500 
	C307.414429,272.442139 306.821472,271.888550 306.316223,270.994873 
	C306.916199,271.238251 307.428467,271.821747 307.974060,272.700500 
z"/>
<path fill="#072DBE" opacity="1.000000" stroke="none" 
	d="
M294.353882,149.032806 
	C295.085480,148.664536 296.169006,148.326080 297.617157,147.991364 
	C296.889771,148.350967 295.797791,148.706787 294.353882,149.032806 
z"/>
<path fill="#2243BA" opacity="1.000000" stroke="none" 
	d="
M63.472176,251.230103 
	C63.928722,251.474045 64.440804,251.989273 64.935471,252.806396 
	C64.454613,252.572678 63.991158,252.037033 63.472176,251.230103 
z"/>
<path fill="#2243BA" opacity="1.000000" stroke="none" 
	d="
M62.390877,236.765106 
	C62.287079,237.342911 61.900406,238.043335 61.209778,238.851593 
	C61.306545,238.268845 61.707275,237.578278 62.390877,236.765106 
z"/>
<path fill="#2243BA" opacity="1.000000" stroke="none" 
	d="
M67.560982,257.223938 
	C67.991081,257.463898 68.486717,257.966583 68.974991,258.760956 
	C68.520599,258.530609 68.073555,258.008636 67.560982,257.223938 
z"/>
<path fill="#072DBE" opacity="1.000000" stroke="none" 
	d="
M298.352661,148.045456 
	C298.837158,147.670425 299.672791,147.349350 300.867554,147.056213 
	C300.385712,147.422562 299.544769,147.760986 298.352661,148.045456 
z"/>
<path fill="#4365DC" opacity="1.000000" stroke="none" 
	d="
M175.688293,424.078522 
	C175.970840,424.077881 176.004761,424.481720 176.024933,424.683350 
	C175.574387,424.940918 175.103653,424.996857 174.296204,424.928955 
	C174.441574,424.563110 174.923645,424.321136 175.688293,424.078522 
z"/>
<path fill="#2243BA" opacity="1.000000" stroke="none" 
	d="
M299.761200,316.310669 
	C299.396454,316.172546 299.286224,315.952698 299.090973,315.374054 
	C299.427032,314.987854 299.848145,314.960449 300.585449,314.946564 
	C300.606354,315.383026 300.311005,315.805969 299.761200,316.310669 
z"/>
<path fill="#0A2DC1" opacity="1.000000" stroke="none" 
	d="
M60.458221,145.674545 
	C60.359394,146.051666 59.969128,146.489807 59.250896,146.933975 
	C59.337547,146.538513 59.752163,146.137039 60.458221,145.674545 
z"/>
<path fill="#2243BA" opacity="1.000000" stroke="none" 
	d="
M303.079559,265.660614 
	C302.723297,265.536041 302.336060,265.130005 301.936646,264.427948 
	C302.299164,264.547668 302.673859,264.963409 303.079559,265.660614 
z"/>
<path fill="#2243BA" opacity="1.000000" stroke="none" 
	d="
M72.612274,264.788544 
	C72.969757,264.849335 73.434952,265.162933 73.888000,265.812561 
	C73.490555,265.779510 73.105270,265.410431 72.612274,264.788544 
z"/>
<path fill="#2243BA" opacity="1.000000" stroke="none" 
	d="
M78.725525,219.045288 
	C78.719429,219.510605 78.437820,220.048813 77.831123,220.544739 
	C77.820694,220.041046 78.135353,219.579605 78.725525,219.045288 
z"/>
<path fill="#2243BA" opacity="1.000000" stroke="none" 
	d="
M71.600647,263.160400 
	C71.925362,263.268127 72.288322,263.594025 72.531616,264.161774 
	C72.154266,264.061951 71.896576,263.720245 71.600647,263.160400 
z"/>
<path fill="#2243BA" opacity="1.000000" stroke="none" 
	d="
M68.976364,259.297607 
	C69.313644,259.426819 69.682915,259.833984 70.074280,260.530640 
	C69.733711,260.405304 69.371033,259.990448 68.976364,259.297607 
z"/>
<path fill="#2243BA" opacity="1.000000" stroke="none" 
	d="
M76.241638,221.649155 
	C76.201088,222.009537 75.923103,222.491287 75.319870,222.987030 
	C75.331146,222.590836 75.667671,222.180679 76.241638,221.649155 
z"/>
<path fill="#2243BA" opacity="1.000000" stroke="none" 
	d="
M74.695335,223.039719 
	C74.754387,223.549286 74.506157,224.101181 73.941582,224.688812 
	C73.879509,224.177048 74.133774,223.629562 74.695335,223.039719 
z"/>
<path fill="#2243BA" opacity="1.000000" stroke="none" 
	d="
M294.027435,254.663254 
	C293.814331,254.785263 293.509338,254.656189 293.089111,254.297150 
	C293.294403,254.182190 293.614990,254.297180 294.027435,254.663254 
z"/>
<path fill="#2243BA" opacity="1.000000" stroke="none" 
	d="
M77.246399,220.668335 
	C77.347816,220.914658 77.247986,221.240738 76.861740,221.510468 
	C76.634483,221.153946 76.791084,220.918610 77.246399,220.668335 
z"/>
<path fill="#2243BA" opacity="1.000000" stroke="none" 
	d="
M68.653885,229.943665 
	C68.746223,230.167587 68.578659,230.479462 68.152328,230.882599 
	C68.060371,230.659775 68.227180,230.345703 68.653885,229.943665 
z"/>
<path fill="#2243BA" opacity="1.000000" stroke="none" 
	d="
M66.723778,231.997833 
	C66.811577,232.217819 66.637611,232.511108 66.218216,232.897430 
	C66.135872,232.684021 66.298943,232.377563 66.723778,231.997833 
z"/>
<path fill="#2243BA" opacity="1.000000" stroke="none" 
	d="
M63.332748,235.717377 
	C63.453571,235.962662 63.339958,236.304230 62.932121,236.665588 
	C62.791363,236.394806 62.944836,236.104233 63.332748,235.717377 
z"/>
<path fill="#2243BA" opacity="1.000000" stroke="none" 
	d="
M62.105255,249.233795 
	C62.359482,249.188614 62.608505,249.421143 62.899502,249.912018 
	C62.661003,249.950729 62.380527,249.731125 62.105255,249.233795 
z"/>
<path fill="#2243BA" opacity="1.000000" stroke="none" 
	d="
M80.081238,275.248322 
	C80.327080,275.184540 80.586914,275.390747 80.904404,275.845276 
	C80.673111,275.901886 80.384178,275.710083 80.081238,275.248322 
z"/>
<path fill="#2243BA" opacity="1.000000" stroke="none" 
	d="
M310.294586,304.989532 
	C310.199646,304.759613 310.367126,304.471008 310.778717,304.099548 
	C310.867554,304.321381 310.712280,304.626129 310.294586,304.989532 
z"/>
<path fill="#2243BA" opacity="1.000000" stroke="none" 
	d="
M70.124031,261.222015 
	C70.379646,261.168610 70.624222,261.389435 70.922073,261.857117 
	C70.687897,261.901367 70.400444,261.698792 70.124031,261.222015 
z"/>
<path fill="#2243BA" opacity="1.000000" stroke="none" 
	d="
M301.904480,263.768768 
	C301.557678,263.935303 301.309875,263.726654 301.103271,263.168518 
	C301.341919,263.116089 301.628265,263.307587 301.904480,263.768768 
z"/>
<path fill="#2243BA" opacity="1.000000" stroke="none" 
	d="
M303.895599,266.776672 
	C303.648743,266.826111 303.399231,266.610718 303.113586,266.144379 
	C303.349304,266.099548 303.621124,266.305664 303.895599,266.776672 
z"/>
<path fill="#072DC6" opacity="1.000000" stroke="none" 
	d="
M69.087448,144.374146 
	C72.135857,142.768127 75.258263,141.539520 78.728989,140.204071 
	C80.972832,143.630676 79.235542,145.018692 75.908356,145.137161 
	C73.666801,145.216965 71.410919,144.894226 69.087448,144.374146 
z"/>
<path fill="#0026C6" opacity="1.000000" stroke="none" 
	d="
M186.957123,68.368195 
	C187.747421,68.007973 188.496674,68.005714 189.616486,68.383652 
	C189.162460,69.839821 188.566696,71.366386 187.476776,71.919853 
	C179.431198,76.005394 178.726517,82.720963 185.872345,88.386971 
	C188.074249,90.132874 190.116302,92.117714 192.463684,93.633705 
	C195.709564,95.729965 196.075272,98.412445 194.948532,101.753944 
	C193.578262,105.817627 192.311523,109.916206 190.754486,114.166779 
	C190.339325,114.889343 190.169662,115.444824 189.991196,116.410728 
	C188.857986,122.634193 186.359787,128.528671 191.005798,134.378830 
	C191.664795,140.757187 192.351089,146.753571 192.931274,152.760208 
	C193.003830,153.511261 192.373001,154.305695 192.313080,155.098557 
	C192.112289,157.755005 191.607117,160.479691 191.979889,163.068619 
	C192.679306,167.926147 194.770401,172.731903 194.632172,177.511444 
	C194.533020,180.939850 194.781555,183.547195 197.000000,186.000000 
	C197.000000,186.166763 197.000000,186.333542 196.724579,186.990082 
	C194.164703,191.438065 196.343750,195.182602 197.000610,199.000000 
	C196.686127,199.556870 196.100693,200.112015 196.097107,200.670898 
	C196.022598,212.282913 195.920532,223.896744 196.092804,235.506210 
	C196.118805,237.258575 197.320282,239.085587 198.259079,240.716248 
	C202.169922,247.509232 206.188248,254.240326 211.192703,262.734894 
	C215.370453,263.939850 221.417755,265.684021 227.574005,268.023376 
	C225.018204,269.273712 222.353485,269.928925 218.561432,270.861298 
	C217.888016,272.830566 215.919266,274.257050 212.583755,271.467896 
	C212.059021,271.029114 210.551605,270.841370 210.263077,271.183075 
	C206.099335,276.114288 201.435699,280.790527 198.238419,286.308167 
	C196.315674,289.626282 196.478729,294.277557 196.159546,298.365265 
	C195.843735,302.409607 195.978043,306.505554 196.208054,310.562256 
	C196.254028,311.372925 197.533783,312.570557 198.408005,312.738281 
	C199.158768,312.882294 200.587997,312.013611 200.942886,311.238312 
	C202.156128,308.587891 202.624207,305.522430 204.163803,303.119781 
	C205.302094,301.343353 207.561783,299.468262 209.511322,299.237457 
	C211.904449,298.954163 214.494858,300.337280 217.000000,301.000000 
	C215.044418,301.768677 213.088837,302.537354 211.065720,303.676025 
	C210.007904,305.782349 209.017609,307.518646 208.024994,309.626465 
	C207.351212,310.774353 206.135376,311.523102 206.094391,312.331390 
	C205.763382,318.860992 205.653885,325.401794 205.475433,331.939148 
	C205.299683,338.377747 205.090027,344.815674 204.959702,351.255157 
	C204.896820,354.361176 205.066071,357.472382 204.984909,360.577423 
	C204.689880,371.865387 204.385056,383.153625 203.979019,394.437958 
	C203.767914,400.304596 203.757172,406.226685 202.884979,412.007385 
	C202.048599,417.550690 199.947540,418.617706 194.564453,416.866730 
	C191.642929,415.916443 188.482056,414.640930 186.389877,412.550537 
	C184.823837,410.985840 183.576889,407.403412 184.306915,405.557373 
	C186.503265,400.003418 189.736130,394.859375 192.293747,390.063538 
	C191.939026,385.765594 191.510895,381.827850 191.308578,377.878571 
	C190.819061,368.323425 190.296677,358.765686 190.102737,349.202606 
	C190.052582,346.728699 191.294907,344.251770 191.693588,341.736603 
	C191.921432,340.299103 191.753845,338.767731 191.565887,337.304138 
	C191.372208,335.795868 190.149048,333.702545 190.747543,332.936432 
	C193.101105,329.923828 192.263290,326.837372 192.099014,323.577179 
	C191.976440,321.145020 192.850357,318.670380 193.195435,316.202759 
	C193.321838,315.298798 193.448822,314.274109 193.158905,313.451294 
	C190.105789,304.786499 190.183777,296.064606 192.349762,287.235779 
	C192.638672,286.058136 192.413605,284.692719 192.182510,283.460022 
	C191.248001,278.475433 190.218002,273.508820 189.156036,268.199554 
	C191.255447,267.895447 192.423447,267.726227 193.591446,267.557037 
	C193.667709,267.171204 193.743988,266.785339 193.820267,266.399506 
	C192.393860,265.967010 190.967468,265.534515 189.813202,265.184509 
	C188.879929,262.295258 187.881195,259.384888 187.012863,256.436096 
	C186.598495,255.028976 186.029755,253.494156 186.218124,252.110764 
	C187.452332,243.046860 185.911926,234.706207 180.046326,227.166916 
	C180.974792,225.814056 181.880386,224.494507 182.902054,223.005829 
	C178.343140,218.687210 177.664551,213.504135 179.117935,207.702225 
	C179.410294,206.535217 178.576218,205.097794 178.307281,203.775742 
	C177.858383,201.569260 177.183075,199.366837 177.085266,197.141510 
	C176.961380,194.323471 178.385757,193.112274 181.454681,193.360092 
	C181.954651,193.400452 182.737900,189.932495 182.342316,187.471039 
	C181.259918,188.218079 180.177505,188.965103 179.177078,189.655563 
	C177.161194,188.345993 177.646774,174.592270 179.591965,171.439362 
	C176.610703,167.379486 176.144180,159.768143 178.207748,156.239746 
	C180.812653,151.785767 183.028015,147.103958 185.678558,142.006714 
	C183.767151,139.347122 181.498810,136.482315 179.617233,133.382690 
	C179.100143,132.530853 179.298447,130.659225 179.919830,129.797058 
	C183.892700,124.284859 184.886856,118.501762 182.240112,112.159332 
	C181.995163,111.572380 182.033752,110.851143 182.011307,110.189857 
	C181.834946,104.997833 185.752579,99.083237 179.344879,94.843834 
	C180.633698,95.191811 181.922501,95.539787 183.211319,95.887756 
	C183.513779,95.545021 183.816238,95.202278 184.118698,94.859535 
	C183.230240,94.025230 182.446762,93.011246 181.420990,92.411964 
	C180.558929,91.908325 179.041382,92.233322 178.454010,91.598930 
	C173.374054,86.112297 175.875488,74.778427 182.661179,71.639473 
	C184.199509,70.927864 185.503967,69.710655 186.957123,68.368195 
M187.322647,136.551224 
	C187.204926,135.785553 187.087219,135.019867 186.969513,134.254196 
	C186.530151,134.337799 186.090790,134.421402 185.651428,134.505005 
	C185.993088,135.219620 186.334732,135.934235 187.322647,136.551224 
M187.296432,104.431488 
	C187.010635,104.704277 186.724854,104.977074 186.439056,105.249863 
	C186.552170,105.368141 186.757401,105.595482 186.765106,105.588989 
	C187.066544,105.334381 187.349976,105.058472 187.296432,104.431488 
z"/>
<path fill="#0023C1" opacity="1.000000" stroke="none" 
	d="
M197.364441,185.956940 
	C194.781555,183.547195 194.533020,180.939850 194.632172,177.511444 
	C194.770401,172.731903 192.679306,167.926147 191.979889,163.068619 
	C191.607117,160.479691 192.112289,157.755005 192.313080,155.098557 
	C192.373001,154.305695 193.003830,153.511261 192.931274,152.760208 
	C192.351089,146.753571 191.664795,140.757187 191.407318,134.380310 
	C194.519501,135.065109 197.884491,135.480927 199.767624,137.372238 
	C201.630692,139.243362 201.997894,142.603912 203.021255,145.311127 
	C203.445816,145.359863 203.870392,145.408585 204.294952,145.457306 
	C204.294952,143.136597 204.047546,140.780380 204.373856,138.506500 
	C204.631302,136.712494 205.221054,134.676224 206.384491,133.410599 
	C207.085480,132.648010 209.167572,133.090515 210.627686,133.107742 
	C212.194672,133.126221 213.893204,133.722412 215.302429,133.297455 
	C220.590866,131.702713 225.681320,129.273666 231.054352,128.206787 
	C234.063690,127.609268 236.411163,126.914047 236.901489,124.004066 
	C237.838028,118.445999 242.089035,117.835854 246.290985,117.036407 
	C248.884216,116.543022 251.532867,116.348930 254.145996,115.950645 
	C260.599731,114.966988 266.961090,113.927841 268.391724,105.745964 
	C268.558075,104.794609 270.202942,103.802299 271.363647,103.372276 
	C279.712799,100.279022 287.917572,96.404747 296.549042,94.565636 
	C306.959961,92.347374 317.143188,92.507843 325.081421,102.448013 
	C331.802460,110.864059 332.613403,110.419754 327.750244,120.193962 
	C324.321930,127.084305 320.194946,133.495834 312.641144,136.797638 
	C311.510315,137.291931 310.868195,138.904266 310.000000,139.999390 
	C305.452942,141.453552 300.938263,143.020432 296.352203,144.338989 
	C286.042389,147.303253 275.725525,150.252304 265.351471,152.979065 
	C261.540009,153.980865 257.496002,154.083923 253.666840,155.034943 
	C238.985703,158.681152 224.345551,162.492966 209.704514,166.298370 
	C208.950546,166.494339 208.330078,167.203949 207.323730,167.837219 
	C205.696198,168.732178 203.553864,169.205780 203.234497,170.241501 
	C201.890030,174.601669 197.425903,178.204269 199.744858,183.591064 
	C199.920990,184.000214 198.439728,185.122864 197.364441,185.956940 
z"/>
<path fill="#0022C1" opacity="1.000000" stroke="none" 
	d="
M217.426559,301.000000 
	C214.494858,300.337280 211.904449,298.954163 209.511322,299.237457 
	C207.561783,299.468262 205.302094,301.343353 204.163803,303.119781 
	C202.624207,305.522430 202.156128,308.587891 200.942886,311.238312 
	C200.587997,312.013611 199.158768,312.882294 198.408005,312.738281 
	C197.533783,312.570557 196.254028,311.372925 196.208054,310.562256 
	C195.978043,306.505554 195.843735,302.409607 196.159546,298.365265 
	C196.478729,294.277557 196.315674,289.626282 198.238419,286.308167 
	C201.435699,280.790527 206.099335,276.114288 210.263077,271.183075 
	C210.551605,270.841370 212.059021,271.029114 212.583755,271.467896 
	C215.919266,274.257050 217.888016,272.830566 218.561432,270.861298 
	C222.353485,269.928925 225.018204,269.273712 227.841736,268.309265 
	C234.204269,268.780090 240.395096,269.699219 246.617645,270.276764 
	C249.380676,270.533173 252.206955,270.024597 255.005875,269.996124 
	C259.913757,269.946167 264.829346,269.840485 269.729492,270.047119 
	C276.227661,270.321167 281.971405,271.488373 287.512909,276.237793 
	C293.007233,280.946808 296.670837,286.468414 300.242554,292.335968 
	C304.676117,299.619446 303.529572,306.070190 296.999573,311.586090 
	C296.536224,311.977448 296.372253,312.723236 296.033936,313.651489 
	C281.782043,313.604431 267.927979,311.321228 254.207321,307.394379 
	C246.038101,305.056366 237.382080,304.425354 228.949936,302.997223 
	C225.244537,302.369659 221.551682,301.668030 217.426559,301.000000 
z"/>
<path fill="#0023C1" opacity="1.000000" stroke="none" 
	d="
M197.373688,198.923645 
	C196.343750,195.182602 194.164703,191.438065 196.724579,187.240234 
	C200.870255,190.721237 199.964722,194.742905 197.373688,198.923645 
z"/>
<path fill="#0023C1" opacity="1.000000" stroke="none" 
	d="
M203.700623,183.038040 
	C203.999664,183.444107 203.999832,183.888809 203.999695,184.667068 
	C203.480835,184.766922 202.962280,184.533234 202.443726,184.299561 
	C202.763077,183.891937 203.082428,183.484314 203.700623,183.038040 
z"/>
<path fill="#0125C2" opacity="1.000000" stroke="none" 
	d="
M151.953339,267.005981 
	C151.961151,270.363617 151.968964,273.721222 151.961914,277.536011 
	C150.439758,279.375885 149.045609,280.916504 147.395233,282.099670 
	C145.520355,283.443756 143.282501,285.652374 141.433182,285.443390 
	C127.186569,283.833496 112.911125,282.188141 98.822357,279.589996 
	C91.327759,278.207916 85.390724,273.579315 82.377617,265.946686 
	C81.357635,263.362946 79.903389,260.811859 78.117561,258.692474 
	C68.720535,247.540283 74.495323,223.012634 90.475540,218.875610 
	C91.406532,218.634583 92.102249,217.484756 92.954254,216.396881 
	C111.156349,219.487503 129.311646,222.939133 147.746002,227.063644 
	C148.675262,230.399689 149.878586,233.064590 149.870285,235.725708 
	C149.846832,243.244339 149.022629,250.766724 149.154343,258.276398 
	C149.205658,261.201721 150.969528,264.097015 151.953339,267.005981 
z"/>
<path fill="#0125C2" opacity="1.000000" stroke="none" 
	d="
M310.369690,139.960236 
	C310.868195,138.904266 311.510315,137.291931 312.641144,136.797638 
	C320.194946,133.495834 324.321930,127.084305 327.750244,120.193962 
	C332.613403,110.419754 331.802460,110.864059 325.081421,102.448013 
	C317.143188,92.507843 306.959961,92.347374 296.549042,94.565636 
	C287.917572,96.404747 279.712799,100.279022 271.363647,103.372276 
	C270.202942,103.802299 268.558075,104.794609 268.391724,105.745964 
	C266.961090,113.927841 260.599731,114.966988 254.145996,115.950645 
	C251.532867,116.348930 248.884216,116.543022 246.290985,117.036407 
	C242.089035,117.835854 237.838028,118.445999 236.901489,124.004066 
	C236.411163,126.914047 234.063690,127.609268 231.054352,128.206787 
	C225.681320,129.273666 220.590866,131.702713 215.302429,133.297455 
	C213.893204,133.722412 212.194672,133.126221 210.627686,133.107742 
	C209.167572,133.090515 207.085480,132.648010 206.384491,133.410599 
	C205.221054,134.676224 204.631302,136.712494 204.373856,138.506500 
	C204.047546,140.780380 204.294952,143.136597 204.294952,145.457306 
	C203.870392,145.408585 203.445816,145.359863 203.021255,145.311127 
	C201.997894,142.603912 201.630692,139.243362 199.767624,137.372238 
	C197.884491,135.480927 194.519501,135.065109 191.402130,134.001465 
	C186.359787,128.528671 188.857986,122.634193 190.342743,116.469582 
	C191.996338,117.792206 193.289551,119.466393 194.582779,121.140587 
	C194.966339,120.845284 195.349899,120.549980 195.733475,120.254677 
	C195.294968,117.407440 195.297775,114.264961 191.000000,113.999695 
	C192.311523,109.916206 193.578262,105.817627 194.948532,101.753944 
	C196.075272,98.412445 195.709564,95.729965 192.463684,93.633705 
	C190.116302,92.117714 188.074249,90.132874 185.872345,88.386971 
	C178.726517,82.720963 179.431198,76.005394 187.476776,71.919853 
	C188.566696,71.366386 189.162460,69.839821 189.991074,68.385483 
	C193.690216,68.687126 197.385315,69.367104 201.469421,70.094658 
	C201.379150,71.453056 201.270416,73.183998 200.350571,73.995316 
	C197.674881,76.355339 197.709167,78.569466 199.772614,81.205322 
	C202.356888,84.506493 204.244446,82.036736 206.306686,80.560913 
	C206.511520,80.414330 206.912094,80.541283 207.999634,80.541283 
	C207.999634,82.736588 207.999634,84.936989 207.998901,87.569336 
	C206.676956,90.278252 204.477875,92.469887 204.246231,94.852783 
	C203.922104,98.186974 204.698624,101.783882 205.761673,105.019554 
	C206.179565,106.291573 208.830978,107.887596 210.140686,107.637352 
	C218.724304,105.997208 227.251129,104.020805 235.735382,101.908737 
	C248.699539,98.681450 261.649048,95.383278 274.538574,91.872215 
	C284.190186,89.243141 293.727631,86.197151 303.335419,83.403900 
	C308.316040,81.955894 313.339020,80.653564 318.673279,79.141426 
	C319.003662,78.997437 319.501831,78.997856 319.809296,79.349579 
	C322.022675,80.830429 323.824249,83.938774 325.996796,80.011314 
	C327.394073,80.689606 328.791382,81.367897 330.524841,82.096558 
	C331.014832,82.616516 331.064331,83.160500 331.338165,83.544518 
	C335.455444,89.318901 335.462402,89.313950 330.590210,93.866318 
	C332.578308,97.267036 334.524384,100.613609 336.493378,103.946663 
	C336.824371,104.506950 337.173584,105.377777 337.650665,105.482162 
	C344.662659,107.016350 340.880524,110.574112 339.169250,113.627609 
	C337.178101,117.180481 335.033356,120.647308 332.901978,124.504486 
	C329.940216,127.824661 327.017242,130.777771 324.132050,133.767365 
	C323.236908,134.694916 322.444305,135.721466 321.301788,136.850830 
	C317.578979,137.972992 314.159180,138.947037 310.369690,139.960236 
M246.705933,104.024300 
	C249.730316,103.298767 252.754715,102.573235 255.779099,101.847702 
	C255.576599,101.205544 255.374115,100.563385 255.171631,99.921219 
	C247.532410,101.906242 239.893204,103.891266 232.253998,105.876289 
	C232.482758,106.720215 232.711502,107.564133 232.940262,108.408051 
	C237.261673,106.993164 241.583099,105.578278 246.705933,104.024300 
M250.064926,108.139275 
	C249.047302,109.400131 248.029678,110.660980 247.012054,111.921837 
	C247.285538,112.304596 247.559021,112.687347 247.832504,113.070107 
	C250.424866,112.107674 253.017227,111.145241 255.609589,110.182800 
	C254.019547,109.465446 252.429489,108.748093 250.064926,108.139275 
M196.772034,130.704010 
	C197.385941,130.430298 197.999847,130.156570 198.613754,129.882858 
	C197.477554,128.600082 196.341370,127.317307 195.205170,126.034531 
	C194.865616,126.309471 194.526047,126.584412 194.186493,126.859352 
	C194.874680,127.996147 195.562881,129.132950 196.772034,130.704010 
M234.337296,115.815643 
	C234.749664,116.479568 235.162048,117.143486 235.574417,117.807411 
	C235.984833,117.404305 236.395233,117.001205 236.805649,116.598099 
	C236.148621,116.174881 235.491608,115.751656 234.337296,115.815643 
M230.296448,116.431450 
	C230.010635,116.704247 229.724838,116.977051 229.439041,117.249847 
	C229.552170,117.368126 229.757416,117.595482 229.765121,117.588959 
	C230.066559,117.334351 230.349991,117.058434 230.296448,116.431450 
z"/>
<path fill="#052CCA" opacity="1.000000" stroke="none" 
	d="
M151.969086,266.537018 
	C150.969528,264.097015 149.205658,261.201721 149.154343,258.276398 
	C149.022629,250.766724 149.846832,243.244339 149.870285,235.725708 
	C149.878586,233.064590 148.675262,230.399689 148.035126,227.334198 
	C151.552307,226.746979 152.036667,228.902969 152.019196,231.756012 
	C151.949142,243.193008 151.986923,254.630646 151.969086,266.537018 
z"/>
<path fill="#0225C2" opacity="1.000000" stroke="none" 
	d="
M109.047279,132.401001 
	C109.288773,132.795868 109.286766,133.189529 109.255943,133.580948 
	C109.255051,133.592300 108.949310,133.579666 108.785713,133.578217 
	C108.790359,133.185303 108.795006,132.792404 109.047279,132.401001 
z"/>
<path fill="#0026C6" opacity="1.000000" stroke="none" 
	d="
M325.694885,79.859627 
	C323.824249,83.938774 322.022675,80.830429 320.058380,79.349945 
	C321.797638,79.235046 323.595306,79.471497 325.694885,79.859627 
z"/>
<path fill="#0023C1" opacity="1.000000" stroke="none" 
	d="
M190.754486,114.166779 
	C195.297775,114.264961 195.294968,117.407440 195.733475,120.254677 
	C195.349899,120.549980 194.966339,120.845284 194.582779,121.140587 
	C193.289551,119.466393 191.996338,117.792206 190.351562,116.059158 
	C190.169662,115.444824 190.339325,114.889343 190.754486,114.166779 
z"/>
<path fill="#0025C7" opacity="1.000000" stroke="none" 
	d="
M186.999512,136.600037 
	C186.334732,135.934235 185.993088,135.219620 185.651428,134.505005 
	C186.090790,134.421402 186.530151,134.337799 186.969513,134.254196 
	C187.087219,135.019867 187.204926,135.785553 186.999512,136.600037 
z"/>
<path fill="#0025C7" opacity="1.000000" stroke="none" 
	d="
M187.466095,104.608421 
	C187.349976,105.058472 187.066544,105.334381 186.765106,105.588989 
	C186.757401,105.595482 186.552170,105.368141 186.439056,105.249863 
	C186.724854,104.977074 187.010635,104.704277 187.466095,104.608421 
z"/>
<path fill="#072DBE" opacity="1.000000" stroke="none" 
	d="
M246.305237,104.093842 
	C241.583099,105.578278 237.261673,106.993164 232.940262,108.408051 
	C232.711502,107.564133 232.482758,106.720215 232.253998,105.876289 
	C239.893204,103.891266 247.532410,101.906242 255.171631,99.921219 
	C255.374115,100.563385 255.576599,101.205544 255.779099,101.847702 
	C252.754715,102.573235 249.730316,103.298767 246.305237,104.093842 
z"/>
<path fill="#0023C1" opacity="1.000000" stroke="none" 
	d="
M250.452179,108.085007 
	C252.429489,108.748093 254.019547,109.465446 255.609589,110.182800 
	C253.017227,111.145241 250.424866,112.107674 247.832504,113.070107 
	C247.559021,112.687347 247.285538,112.304596 247.012054,111.921837 
	C248.029678,110.660980 249.047302,109.400131 250.452179,108.085007 
z"/>
<path fill="#0023C1" opacity="1.000000" stroke="none" 
	d="
M196.511566,130.486877 
	C195.562881,129.132950 194.874680,127.996147 194.186493,126.859352 
	C194.526047,126.584412 194.865616,126.309471 195.205170,126.034531 
	C196.341370,127.317307 197.477554,128.600082 198.613754,129.882858 
	C197.999847,130.156570 197.385941,130.430298 196.511566,130.486877 
z"/>
<path fill="#0023C1" opacity="1.000000" stroke="none" 
	d="
M234.585938,115.572037 
	C235.491608,115.751656 236.148621,116.174881 236.805649,116.598099 
	C236.395233,117.001205 235.984833,117.404305 235.574417,117.807411 
	C235.162048,117.143486 234.749664,116.479568 234.585938,115.572037 
z"/>
<path fill="#0023C1" opacity="1.000000" stroke="none" 
	d="
M230.466125,116.608383 
	C230.349991,117.058434 230.066559,117.334351 229.765121,117.588959 
	C229.757416,117.595482 229.552170,117.368126 229.439041,117.249847 
	C229.724838,116.977051 230.010635,116.704247 230.466125,116.608383 
z"/>
</svg>